<svg id="Layer_1" data-name="Layer 1" xmlns="http://www.w3.org/2000/svg" viewBox="0 0 188 36"><defs><style>.cls-1{fill:#30429c;}</style></defs><path class="cls-1" d="M10.87,22.61,9.28,24.3a.94.94,0,0,0-.24.62v3.69A1.14,1.14,0,0,1,7.9,29.75H4.37a1.14,1.14,0,0,1-1.14-1.14V10.15A1.14,1.14,0,0,1,4.37,9H7.9A1.14,1.14,0,0,1,9,10.15v6.32a.46.46,0,0,0,.79.32l6.76-7.27A1.62,1.62,0,0,1,17.76,9h3.16a1.15,1.15,0,0,1,.84,1.92L15.05,18.2l7.5,9.71a1.14,1.14,0,0,1-.9,1.84H17.93a1.63,1.63,0,0,1-1.26-.61l-5.11-6.5A.46.46,0,0,0,10.87,22.61Z"/><path class="cls-1" d="M40,20.83v8.23a.69.69,0,0,1-.69.69H35.4a.68.68,0,0,1-.68-.69V27.67C33.92,29.21,32.32,30,30,30c-3.85,0-6-2.16-6-4.94,0-3,2.17-4.8,7.14-4.8H33.5a.68.68,0,0,0,.65-.91c-.4-1.06-1.46-1.64-3.23-1.64a7.83,7.83,0,0,0-3.73,1,.68.68,0,0,1-1-.28L25,15.86a.67.67,0,0,1,.27-.9,14,14,0,0,1,6.52-1.53C37,13.43,40,15.74,40,20.83Zm-5.63,3.76v-.71a.69.69,0,0,0-.68-.68H31.9c-1.81,0-2.46.65-2.46,1.63s.77,1.63,2.11,1.63A2.76,2.76,0,0,0,34.33,24.59Z"/><path class="cls-1" d="M54.26,14.14v3.6a.68.68,0,0,1-.73.68l-.54,0c-2.28,0-3.85,1.16-3.85,4v6.69a.69.69,0,0,1-.69.69H44.19a.69.69,0,0,1-.68-.69V14.38a.69.69,0,0,1,.68-.69h4a.69.69,0,0,1,.68.69v1.24a6.27,6.27,0,0,1,4.67-2.17A.68.68,0,0,1,54.26,14.14Z"/><path class="cls-1" d="M56,8.93c0-1.69,1.36-3,3.43-3s3.44,1.22,3.44,2.91a3.13,3.13,0,0,1-3.44,3.08C57.31,11.92,56,10.61,56,8.93Zm1.3,4.76h4.26a.69.69,0,0,1,.69.69V29.06a.69.69,0,0,1-.69.69H57.25a.69.69,0,0,1-.68-.69V14.38A.69.69,0,0,1,57.25,13.69Z"/><path class="cls-1" d="M92.78,20.57v8.49a.69.69,0,0,1-.69.69h-3.8a.68.68,0,0,1-.68-.69V21.48c0-2.31-1-3.28-2.43-3.28-1.63,0-2.81,1.09-2.81,3.58v7.28a.69.69,0,0,1-.69.69H77.42a.68.68,0,0,1-.68-.69V21.48c0-2.31-.92-3.28-2.43-3.28-1.66,0-2.84,1.09-2.84,3.58v7.28a.69.69,0,0,1-.69.69H66.52a.69.69,0,0,1-.68-.69V14.38a.69.69,0,0,1,.68-.69h4.16a.52.52,0,0,1,.52.53.53.53,0,0,0,.84.42,5.26,5.26,0,0,1,3.87-1.14,5.39,5.39,0,0,1,3.21,2.06.68.68,0,0,0,1,0,7.6,7.6,0,0,1,4.69-2.16A7,7,0,0,1,92.78,20.57Z"/><path class="cls-1" d="M95.78,26.67a3.38,3.38,0,0,1,6.75,0,3.38,3.38,0,0,1-6.75,0Z"/><path class="cls-1" d="M123.15,21.69c0,5.12-3.53,8.32-7.88,8.32a6.27,6.27,0,0,1-4.12-1.24.38.38,0,0,0-.62.29h0a.69.69,0,0,1-.68.69h-4a.68.68,0,0,1-.68-.69V8.45a.68.68,0,0,1,.68-.68h4.26a.69.69,0,0,1,.69.68v5.8a.38.38,0,0,0,.61.3,6.3,6.3,0,0,1,3.86-1.12C119.62,13.43,123.15,16.6,123.15,21.69Zm-5.69,0c0-2.43-1.48-3.79-3.38-3.79s-3.37,1.36-3.37,3.79,1.48,3.85,3.37,3.85S117.46,24.15,117.46,21.69Z"/><path class="cls-1" d="M142.63,14.38V29.06a.68.68,0,0,1-.68.69h-4a.69.69,0,0,1-.69-.69h0a.45.45,0,0,0-.73-.36,6.5,6.5,0,0,1-4,1.31c-3.94,0-6.81-2.25-6.81-7.34V14.38a.69.69,0,0,1,.69-.69h4.25a.69.69,0,0,1,.69.69v7.37c0,2.49,1,3.46,2.66,3.46s3-1.09,3-3.79v-7a.69.69,0,0,1,.69-.69H142A.68.68,0,0,1,142.63,14.38Z"/><path class="cls-1" d="M160.22,26.22v2.84a.68.68,0,0,1-.68.69H146.1a.69.69,0,0,1-.69-.69V26.68a.66.66,0,0,1,.17-.44L151.86,19a.68.68,0,0,0-.51-1.13h-5a.69.69,0,0,1-.69-.68V14.38a.69.69,0,0,1,.69-.69h12.93a.69.69,0,0,1,.69.69v2.35a.66.66,0,0,1-.17.44l-6.28,7.24a.68.68,0,0,0,.51,1.13h5.55A.68.68,0,0,1,160.22,26.22Z"/><path class="cls-1" d="M176.69,26.22v2.84a.69.69,0,0,1-.68.69H162.56a.69.69,0,0,1-.68-.69V26.68a.66.66,0,0,1,.17-.44L168.33,19a.68.68,0,0,0-.52-1.13h-5a.68.68,0,0,1-.68-.68V14.38a.68.68,0,0,1,.68-.69h12.94a.68.68,0,0,1,.68.69v2.35a.7.7,0,0,1-.16.44l-6.29,7.24a.68.68,0,0,0,.52,1.13H176A.69.69,0,0,1,176.69,26.22Z"/><path class="cls-1" d="M181.25,10.07v5.68a1.16,1.16,0,0,1-1.15,1.15h0a1.16,1.16,0,0,1-1.16-1.15V11.91a.68.68,0,0,0-.68-.69h-3.84a1.14,1.14,0,0,1-1.15-1.15h0a1.15,1.15,0,0,1,1.15-1.15h5.68A1.16,1.16,0,0,1,181.25,10.07Z"/><path class="cls-1" d="M184.67,6.42V11a.92.92,0,0,1-.92.92h0a.92.92,0,0,1-.92-.92V8a.69.69,0,0,0-.69-.69H179.2a.92.92,0,0,1-.92-.92h0a.92.92,0,0,1,.92-.92h4.55A.92.92,0,0,1,184.67,6.42Z"/></svg>